<?xml version="1.0" encoding="UTF-8"?>
<svg xmlns="http://www.w3.org/2000/svg" xmlns:xlink="http://www.w3.org/1999/xlink" width="16pt" height="16pt" viewBox="0 0 16 16" version="1.1">
<g id="surface1">
<path style=" stroke:none;fill-rule:nonzero;fill:rgb(0%,0%,0%);fill-opacity:1;" d="M 15.929688 8.105469 C 15.929688 9.207031 15.910156 10.304688 15.941406 11.40625 C 15.984375 13.351562 14.765625 14.851562 13.210938 15.519531 C 12.585938 15.789062 11.929688 15.929688 11.25 15.929688 C 9.128906 15.929688 7 15.960938 4.875 15.917969 C 3.277344 15.890625 1.960938 15.21875 1.019531 13.898438 C 0.523438 13.207031 0.289062 12.417969 0.289062 11.5625 C 0.289062 9.300781 0.289062 7.042969 0.289062 4.78125 C 0.289062 2.933594 1.1875 1.644531 2.78125 0.804688 C 3.476562 0.441406 4.230469 0.289062 5.019531 0.28125 C 7.078125 0.28125 9.140625 0.269531 11.203125 0.292969 C 12.800781 0.304688 14.132812 0.914062 15.121094 2.203125 C 15.667969 2.921875 15.929688 3.746094 15.929688 4.65625 C 15.929688 5.804688 15.929688 6.957031 15.929688 8.105469 Z M 1.453125 8.105469 C 1.453125 9.265625 1.453125 10.421875 1.453125 11.582031 C 1.453125 12.097656 1.570312 12.582031 1.839844 13.019531 C 2.542969 14.171875 3.605469 14.734375 4.925781 14.757812 C 7.042969 14.785156 9.160156 14.769531 11.28125 14.761719 C 11.804688 14.761719 12.308594 14.65625 12.777344 14.433594 C 14.058594 13.820312 14.773438 12.84375 14.769531 11.378906 C 14.757812 9.140625 14.765625 6.898438 14.765625 4.660156 C 14.765625 4.027344 14.585938 3.445312 14.210938 2.933594 C 13.484375 1.953125 12.480469 1.46875 11.28125 1.457031 C 9.167969 1.433594 7.054688 1.449219 4.941406 1.453125 C 4.488281 1.453125 4.054688 1.542969 3.632812 1.699219 C 2.46875 2.132812 1.390625 3.226562 1.441406 4.839844 C 1.476562 5.929688 1.453125 7.019531 1.453125 8.105469 Z M 1.453125 8.105469 "/>
<path style=" stroke:none;fill-rule:nonzero;fill:rgb(0%,0%,0%);fill-opacity:1;" d="M 8.128906 11.453125 C 6.09375 11.453125 4.453125 9.832031 4.449219 7.8125 C 4.445312 5.824219 6.101562 4.195312 8.121094 4.195312 C 10.148438 4.191406 11.796875 5.816406 11.800781 7.820312 C 11.800781 9.824219 10.15625 11.449219 8.128906 11.453125 Z M 8.128906 10.285156 C 9.511719 10.285156 10.636719 9.175781 10.632812 7.816406 C 10.628906 6.464844 9.507812 5.359375 8.128906 5.359375 C 6.742188 5.359375 5.613281 6.460938 5.613281 7.820312 C 5.617188 9.1875 6.742188 10.289062 8.128906 10.285156 Z M 8.128906 10.285156 "/>
<path style=" stroke:none;fill-rule:nonzero;fill:rgb(0%,0%,0%);fill-opacity:1;" d="M 12.226562 3.09375 C 12.648438 3.09375 13 3.457031 13 3.898438 C 12.996094 4.34375 12.644531 4.707031 12.21875 4.699219 C 11.800781 4.695312 11.457031 4.339844 11.457031 3.902344 C 11.453125 3.457031 11.800781 3.09375 12.226562 3.09375 Z M 12.226562 3.09375 "/>
</g>
</svg>
